# Blender v2.93.4 OBJ File: ''
# www.blender.org
mtllib Cryo1.mtl
o Cube
v 0.677876 0.977628 -0.677876
v 0.717418 0.001774 -0.717418
v 0.677876 0.977628 0.677876
v 0.717418 0.001774 0.717418
v -0.677876 0.977628 -0.677876
v -0.717418 0.001774 -0.717418
v -0.677876 0.977628 0.677876
v -0.717418 0.001774 0.717418
v 0.500000 0.001774 -1.000000
v 0.000000 0.001774 -1.000000
v -0.500000 0.001774 -1.000000
v 0.500000 1.185543 0.663378
v 0.000000 1.185543 0.663378
v -0.500000 1.185543 0.663378
v -0.500000 0.001774 1.000000
v 0.000000 0.001774 1.000000
v 0.500000 0.001774 1.000000
v -0.500000 1.185543 -1.000000
v 0.000000 1.185543 -1.000000
v 0.500000 1.185543 -1.000000
v -0.717418 0.001774 -0.358709
v -0.717418 0.001774 0.000000
v -0.717418 0.001774 0.358709
v 0.677876 0.977628 -0.338938
v 0.677876 0.977628 0.000000
v 0.677876 0.977628 0.338938
v -0.677876 0.977628 0.338938
v -0.677876 0.977628 0.000000
v -0.677876 0.977628 -0.338938
v 0.717418 0.001774 0.358709
v 0.717418 0.001774 0.000000
v 0.717418 0.001774 -0.358709
v -0.500000 0.001774 -0.500000
v -0.500000 0.001774 0.000000
v -0.500000 0.001774 0.500000
v 0.000000 0.001774 -0.500000
v 0.000000 0.001774 0.000000
v 0.000000 0.001774 0.500000
v 0.500000 0.001774 -0.500000
v 0.500000 0.001774 0.000000
v 0.500000 0.001774 0.500000
v 0.500000 1.185543 -0.500000
v 0.500000 1.185543 0.000000
v 0.500000 1.185543 0.500000
v 0.000000 1.185543 -0.500000
v 0.000000 1.185543 0.000000
v 0.000000 1.185543 0.500000
v -0.500000 1.185543 -0.500000
v -0.500000 1.185543 0.000000
v -0.500000 1.185543 0.500000
v 1.000000 0.880050 -1.000000
v 1.000000 0.480050 -1.000000
v 0.592774 0.301027 -0.592774
v 0.592774 0.063917 -0.592774
v -0.592774 0.063917 0.592774
v -0.592774 0.301027 0.592774
v -1.000000 0.480050 1.000000
v -0.733194 0.880050 1.000000
v 0.733194 0.880050 1.000000
v 1.000000 0.480050 1.000000
v 0.592774 0.301027 0.592774
v 0.592774 0.063917 0.592774
v -1.000000 0.880050 -1.000000
v -1.000000 0.480050 -1.000000
v -0.592774 0.301027 -0.592774
v -0.592774 0.063917 -0.592774
v -0.500000 0.880050 -1.000000
v -0.500000 0.480050 -1.000000
v -0.296387 0.301027 -0.592774
v -0.296387 0.063917 -0.592774
v 0.000000 0.880050 -1.000000
v 0.000000 0.480050 -1.000000
v 0.000000 0.301027 -0.592774
v 0.000000 0.063917 -0.592774
v 0.500000 0.880050 -1.000000
v 0.500000 0.480050 -1.000000
v 0.296387 0.301027 -0.592774
v 0.296387 0.063917 -0.592774
v 0.500000 0.880050 1.000000
v 0.500000 0.480050 1.000000
v 0.296387 0.301027 0.592774
v 0.296387 0.063917 0.592774
v 0.000000 0.880050 1.000000
v 0.000000 0.480050 1.000000
v 0.000000 0.301027 0.592774
v 0.000000 0.063917 0.592774
v -0.500000 0.880050 1.000000
v -0.500000 0.480050 1.000000
v -0.296387 0.301027 0.592774
v -0.296387 0.063917 0.592774
v 1.000000 0.880050 -0.500000
v 1.000000 0.480050 -0.500000
v 0.592774 0.301027 -0.296387
v 0.592774 0.063917 -0.296387
v 1.000000 0.880050 0.000000
v 1.000000 0.480050 0.000000
v 0.592774 0.301027 0.000000
v 0.592774 0.063917 0.000000
v 1.000000 0.880050 0.500000
v 1.000000 0.480050 0.500000
v 0.592774 0.301027 0.296387
v 0.592774 0.063917 0.296387
v -1.000000 0.880050 0.500000
v -1.000000 0.480050 0.500000
v -0.592774 0.301027 0.296387
v -0.592774 0.063917 0.296387
v -1.000000 0.880050 0.000000
v -1.000000 0.480050 0.000000
v -0.592774 0.301027 0.000000
v -0.592774 0.063917 0.000000
v -1.000000 0.880050 -0.500000
v -1.000000 0.480050 -0.500000
v -0.592774 0.301027 -0.296387
v -0.592774 0.063917 -0.296387
v 0.500000 0.680050 1.000000
v 0.000000 0.680050 1.000000
v -0.500000 0.680050 1.000000
v -0.250000 0.480050 1.000000
v -0.250000 0.880050 1.000000
v 0.250000 0.480050 1.000000
v 0.250000 0.880050 1.000000
v 0.250000 0.680050 1.000000
v -0.250000 0.680050 1.000000
v 0.082755 0.813152 2.058282
v 0.000000 0.813152 2.058282
v 0.000000 0.746948 2.058282
v -0.082755 0.813152 2.058282
v 0.082755 0.746948 2.058282
v -0.082755 0.746948 2.058282
v 0.250000 0.001774 -1.000000
v 0.250000 1.185543 0.663378
v 0.250000 0.001774 1.000000
v 0.250000 1.185543 -1.000000
v 0.250000 1.185543 -0.500000
v 0.250000 1.185543 0.000000
v 0.250000 1.185543 0.500000
v 0.250000 0.001774 -0.500000
v 0.250000 0.001774 0.000000
v 0.250000 0.001774 0.500000
v 0.148193 0.063917 0.592774
v 0.148193 0.301027 0.592774
v 0.148193 0.063917 -0.592774
v 0.148193 0.301027 -0.592774
v 0.250000 0.480050 -1.000000
v 0.250000 0.880050 -1.000000
v -0.250000 0.001774 -1.000000
v -0.250000 1.185543 0.663378
v -0.250000 0.001774 1.000000
v -0.250000 1.185543 -1.000000
v -0.250000 1.185543 -0.500000
v -0.250000 1.185543 0.000000
v -0.250000 1.185543 0.500000
v -0.250000 0.001774 -0.500000
v -0.250000 0.001774 0.000000
v -0.250000 0.001774 0.500000
v -0.148193 0.063917 0.592774
v -0.148193 0.301027 0.592774
v -0.148193 0.063917 -0.592774
v -0.148193 0.301027 -0.592774
v -0.250000 0.480050 -1.000000
v -0.250000 0.880050 -1.000000
vt 0.941435 0.428902
vt 0.899155 0.462221
vt 0.899155 0.395298
vt 0.941435 0.396643
vt 0.098825 0.197966
vt 0.098824 0.284772
vt 0.063667 0.263392
vt 0.052734 0.197966
vt 0.000000 0.461472
vt 0.063667 0.442017
vt 0.063667 0.501559
vt 0.000000 0.549308
vt 0.635919 0.690991
vt 0.678892 0.663139
vt 0.678892 0.733850
vt 0.635919 0.789556
vt 0.395298 0.285801
vt 0.331630 0.322934
vt 0.331630 0.263392
vt 0.342564 0.197966
vt 0.757951 0.691771
vt 0.818331 0.691771
vt 0.777237 0.726928
vt 0.757951 0.790595
vt 0.757951 0.395298
vt 0.777237 0.458965
vt 0.818331 0.494122
vt 0.757951 0.494122
vt 0.757951 0.543534
vt 0.818331 0.543534
vt 0.818331 0.592947
vt 0.757951 0.592947
vt 0.757951 0.642359
vt 0.818331 0.642359
vt 0.395298 0.663139
vt 0.438270 0.690991
vt 0.438270 0.789556
vt 0.395298 0.733850
vt 0.487682 0.690991
vt 0.537095 0.690991
vt 0.537095 0.789556
vt 0.487682 0.789556
vt 0.586507 0.690991
vt 0.586507 0.789556
vt 0.296473 0.284772
vt 0.296473 0.197966
vt 0.247061 0.284772
vt 0.197649 0.284772
vt 0.197649 0.197966
vt 0.247061 0.197966
vt 0.148237 0.284772
vt 0.148237 0.197966
vt 0.888380 0.262854
vt 0.930660 0.296173
vt 0.930660 0.328432
vt 0.888380 0.329777
vt 0.247061 0.313473
vt 0.197649 0.313473
vt 0.148237 0.313473
vt 0.098824 0.313473
vt 0.148237 0.576980
vt 0.098824 0.576980
vt 0.098824 0.489144
vt 0.148237 0.489144
vt 0.098824 0.401309
vt 0.148237 0.401309
vt 0.247061 0.576980
vt 0.197649 0.576980
vt 0.197649 0.489144
vt 0.247061 0.489144
vt 0.197649 0.401309
vt 0.247061 0.401309
vt 0.888380 0.062086
vt 0.930660 0.000000
vt 0.930660 0.098724
vt 0.888380 0.129008
vt 0.930660 0.197449
vt 0.888380 0.195931
vt 0.586507 0.395298
vt 0.635919 0.395298
vt 0.635919 0.493862
vt 0.586507 0.493862
vt 0.635919 0.592427
vt 0.586507 0.592427
vt 0.487682 0.395298
vt 0.537095 0.395298
vt 0.537095 0.493862
vt 0.487682 0.493862
vt 0.537095 0.592427
vt 0.487682 0.592427
vt 0.395298 0.451003
vt 0.438270 0.395298
vt 0.438270 0.493862
vt 0.395298 0.521715
vt 0.438270 0.592427
vt 0.395298 0.592427
vt 0.395298 0.549308
vt 0.331630 0.501559
vt 0.331630 0.442017
vt 0.395298 0.461473
vt 0.331630 0.382475
vt 0.395298 0.373637
vt 0.678892 0.451003
vt 0.678892 0.521715
vt 0.678892 0.592427
vt 0.063667 0.322934
vt 0.000000 0.285801
vt 0.063667 0.382475
vt 0.000000 0.373637
vt 0.941435 0.725075
vt 0.899155 0.662989
vt 0.899155 0.596066
vt 0.941435 0.626350
vt 0.899155 0.529143
vt 0.941435 0.527626
vt 0.000000 0.752650
vt 0.024636 0.758280
vt 0.024636 0.810346
vt 0.000000 0.815665
vt 0.977497 0.117115
vt 0.930660 0.117042
vt 0.930660 0.058521
vt 0.977497 0.058594
vt 0.594992 0.314810
vt 0.592427 0.395298
vt 0.493862 0.395298
vt 0.536565 0.314810
vt 0.283900 0.776802
vt 0.362912 0.776802
vt 0.363065 0.875527
vt 0.284053 0.875527
vt 0.000000 0.689636
vt 0.024636 0.706213
vt 0.977497 0.175636
vt 0.930660 0.175564
vt 0.653418 0.314810
vt 0.690991 0.395298
vt 0.283747 0.678078
vt 0.362760 0.678078
vt 0.000000 0.626621
vt 0.024636 0.654146
vt 0.977497 0.234157
vt 0.930660 0.234085
vt 0.711844 0.314810
vt 0.789556 0.395298
vt 0.283594 0.579354
vt 0.364418 0.576980
vt 0.283594 0.752651
vt 0.258958 0.758280
vt 0.258958 0.706213
vt 0.283594 0.689636
vt 0.941435 0.512413
vt 0.988272 0.512340
vt 0.988272 0.570861
vt 0.941435 0.570934
vt 0.594992 0.080488
vt 0.592427 0.000000
vt 0.690991 0.000000
vt 0.653418 0.080488
vt 0.898849 0.595120
vt 0.819836 0.595120
vt 0.819989 0.496396
vt 0.899002 0.496396
vt 0.283594 0.815665
vt 0.258958 0.810346
vt 0.941435 0.453891
vt 0.988272 0.453819
vt 0.536565 0.080488
vt 0.493862 0.000000
vt 0.898696 0.693845
vt 0.819684 0.693845
vt 0.283594 0.878680
vt 0.258958 0.862413
vt 0.941435 0.395370
vt 0.988272 0.395298
vt 0.478139 0.080488
vt 0.395298 0.000000
vt 0.898543 0.792569
vt 0.819531 0.792569
vt 0.092385 0.576980
vt 0.112507 0.654146
vt 0.083216 0.654146
vt 0.042973 0.576980
vt 0.112507 0.675624
vt 0.083216 0.675624
vt 0.711844 0.197649
vt 0.789556 0.197649
vt 0.789556 0.247061
vt 0.789556 0.296473
vt 0.711844 0.256229
vt 0.711844 0.226939
vt 0.148237 0.179850
vt 0.098825 0.179850
vt 0.191209 0.576980
vt 0.171087 0.654146
vt 0.141797 0.654146
vt 0.141797 0.576980
vt 0.171087 0.675624
vt 0.141797 0.675624
vt 0.711844 0.139068
vt 0.789556 0.098824
vt 0.789556 0.148237
vt 0.711844 0.168359
vt 0.434804 1.000000
vt 0.395298 1.000000
vt 0.407701 0.789556
vt 0.420778 0.789556
vt 0.283594 0.626621
vt 0.258958 0.654146
vt 0.200377 0.654146
vt 0.240621 0.576980
vt 0.258958 0.675624
vt 0.200377 0.675624
vt 0.711844 0.080488
vt 0.789556 0.000000
vt 0.395298 0.161734
vt 0.296473 0.179850
vt 0.296473 0.161734
vt 0.191209 0.928322
vt 0.171087 0.862413
vt 0.200377 0.862413
vt 0.240621 0.928322
vt 0.946020 0.812945
vt 0.899155 0.812945
vt 0.899155 0.783655
vt 0.946020 0.783655
vt 0.478139 0.168359
vt 0.395298 0.148237
vt 0.395298 0.098824
vt 0.478139 0.139068
vt 0.678891 0.642359
vt 0.678891 0.691771
vt 0.092385 0.928322
vt 0.112507 0.862413
vt 0.141797 0.862413
vt 0.141797 0.928322
vt 0.946020 0.871526
vt 0.899155 0.871526
vt 0.899155 0.842236
vt 0.946020 0.842236
vt 0.478139 0.226939
vt 0.395298 0.247061
vt 0.395298 0.197649
vt 0.478139 0.197649
vt 0.678891 0.543534
vt 0.678891 0.592947
vt 0.000000 0.878680
vt 0.024636 0.862413
vt 0.083216 0.862413
vt 0.042972 0.928322
vt 0.946020 0.959397
vt 0.899155 0.959397
vt 0.899155 0.900816
vt 0.946020 0.900816
vt 0.478139 0.314810
vt 0.395298 0.395298
vt 0.395298 0.296473
vt 0.478139 0.256229
vt 0.678891 0.395298
vt 0.678891 0.494122
vt 0.899155 0.725075
vt 0.946020 0.725075
vt 0.678891 0.790595
vt 0.988272 0.629382
vt 0.941435 0.629455
vt 0.818331 0.395298
vt 0.899155 0.397672
vt 0.930660 0.000000
vt 0.977497 0.000073
vt 0.363218 0.974251
vt 0.284206 0.974251
vt 0.024636 0.675624
vt 0.098825 0.161734
vt 0.000000 0.161734
vt 0.247061 0.161734
vt 0.247061 0.179850
vt 0.197649 0.179850
vt 0.197649 0.161734
vt 0.148237 0.161734
vt 0.888380 0.207660
vt 0.838968 0.207660
vt 0.838968 0.000000
vt 0.855324 0.000000
vt 0.214005 0.000000
vt 0.214005 0.005997
vt 0.197649 0.005997
vt 0.197649 0.000000
vt 0.181293 0.005997
vt 0.181293 0.000000
vt 0.789556 0.207660
vt 0.822612 0.000000
vt 0.985526 0.935519
vt 0.946020 0.935519
vt 0.960046 0.725075
vt 0.973123 0.725075
vt 0.296473 0.401309
vt 0.296473 0.313473
vt 0.296473 0.489144
vt 0.296473 0.576980
vn -0.7599 0.6501 0.0000
vn -0.3886 0.8001 0.4569
vn -0.2899 0.9571 0.0000
vn 0.0000 -1.0000 0.0000
vn 0.3428 0.9330 0.1090
vn 0.4575 0.7488 -0.4795
vn -0.4575 0.7488 -0.4795
vn 0.0000 0.0000 -1.0000
vn 0.3886 0.8001 0.4569
vn 0.0000 0.7405 0.6720
vn 0.7599 0.6501 0.0000
vn 0.0000 1.0000 0.0000
vn 0.2899 0.9571 0.0000
vn -0.3428 0.9330 0.1090
vn -0.4462 0.8949 0.0000
vn -1.0000 0.0000 0.0000
vn -0.4024 -0.9154 0.0000
vn -0.9196 0.3067 0.2454
vn 0.4462 0.8949 0.0000
vn 1.0000 0.0000 0.0000
vn 0.4024 -0.9154 0.0000
vn 0.0000 0.9886 0.1509
vn 0.0000 0.0000 1.0000
vn 0.0000 -0.9154 0.4024
vn 0.9877 0.0000 0.1561
vn 0.0941 0.9807 0.1711
vn 0.0000 0.9886 -0.1509
vn 0.0000 -0.9154 -0.4024
vn -0.0941 0.9807 -0.1711
vn 0.0941 0.9807 -0.1711
vn 0.9196 0.3067 0.2454
vn -0.0941 0.9807 0.1711
vn 0.0000 -0.9980 0.0631
vn 0.0000 0.9980 0.0631
vn -0.9877 0.0000 0.1561
usemtl Material
s off
f 50/1/1 27/2/1 7/3/1 14/4/1
f 87/5/2 14/6/2 7/7/2 58/8/2
f 111/9/3 29/10/3 5/11/3 63/12/3
f 41/13/4 30/14/4 4/15/4 17/16/4
f 99/17/5 26/18/5 3/19/5 59/20/5
f 75/21/6 20/22/6 1/23/6 51/24/6
f 63/25/7 5/26/7 18/27/7 67/28/7
f 161/29/8 149/30/8 19/31/8 71/32/8
f 145/33/8 133/34/8 20/22/8 75/21/8
f 23/35/4 35/36/4 15/37/4 8/38/4
f 155/39/4 38/40/4 16/41/4 148/42/4
f 139/43/4 41/13/4 17/16/4 132/44/4
f 59/20/9 3/19/9 12/45/9 79/46/9
f 79/46/10 12/45/10 131/47/10 13/48/10 83/49/10 121/50/10
f 83/49/10 13/48/10 147/51/10 14/6/10 87/5/10 119/52/10
f 26/53/11 44/54/11 12/55/11 3/56/11
f 136/57/12 47/58/12 13/48/12 131/47/12
f 152/59/12 50/60/12 14/6/12 147/51/12
f 149/61/12 18/62/12 48/63/12 150/64/12
f 150/64/12 48/63/12 49/65/12 151/66/12
f 151/66/12 49/65/12 50/60/12 152/59/12
f 133/67/12 19/68/12 45/69/12 134/70/12
f 134/70/12 45/69/12 46/71/12 135/72/12
f 135/72/12 46/71/12 47/58/12 136/57/12
f 1/73/11 20/74/11 42/75/11 24/76/11
f 24/76/11 42/75/11 43/77/11 25/78/11
f 25/78/11 43/77/11 44/54/11 26/53/11
f 130/79/4 9/80/4 39/81/4 137/82/4
f 137/82/4 39/81/4 40/83/4 138/84/4
f 138/84/4 40/83/4 41/13/4 139/43/4
f 146/85/4 10/86/4 36/87/4 153/88/4
f 153/88/4 36/87/4 37/89/4 154/90/4
f 154/90/4 37/89/4 38/40/4 155/39/4
f 6/91/4 11/92/4 33/93/4 21/94/4
f 21/94/4 33/93/4 34/95/4 22/96/4
f 22/96/4 34/95/4 35/36/4 23/35/4
f 51/97/13 1/98/13 24/99/13 91/100/13
f 91/100/13 24/99/13 25/101/13 95/102/13
f 95/102/13 25/101/13 26/18/13 99/17/13
f 9/80/4 2/103/4 32/104/4 39/81/4
f 39/81/4 32/104/4 31/105/4 40/83/4
f 40/83/4 31/105/4 30/14/4 41/13/4
f 58/8/14 7/7/14 27/106/14 103/107/14
f 103/107/3 27/106/3 28/108/3 107/109/3
f 107/109/3 28/108/3 29/10/3 111/9/3
f 18/110/1 5/111/1 29/112/1 48/113/1
f 48/113/1 29/112/1 28/114/1 49/115/1
f 49/115/1 28/114/1 27/2/1 50/1/1
f 22/116/15 110/117/15 114/118/15 21/119/15
f 110/120/16 109/121/16 113/122/16 114/123/16
f 109/124/17 108/125/17 112/126/17 113/127/17
f 108/128/16 107/129/16 111/130/16 112/131/16
f 23/132/15 106/133/15 110/117/15 22/116/15
f 106/134/16 105/135/16 109/121/16 110/120/16
f 105/136/17 104/137/17 108/125/17 109/124/17
f 104/138/16 103/139/16 107/129/16 108/128/16
f 8/140/15 55/141/15 106/133/15 23/132/15
f 55/142/16 56/143/16 105/135/16 106/134/16
f 56/144/17 57/145/17 104/137/17 105/136/17
f 57/146/18 58/147/18 103/139/18 104/138/18
f 31/148/19 98/149/19 102/150/19 30/151/19
f 98/152/20 97/153/20 101/154/20 102/155/20
f 97/156/21 96/157/21 100/158/21 101/159/21
f 96/160/20 95/161/20 99/162/20 100/163/20
f 32/164/19 94/165/19 98/149/19 31/148/19
f 94/166/20 93/167/20 97/153/20 98/152/20
f 93/168/21 92/169/21 96/157/21 97/156/21
f 92/170/20 91/171/20 95/161/20 96/160/20
f 2/172/19 54/173/19 94/165/19 32/164/19
f 54/174/20 53/175/20 93/167/20 94/166/20
f 53/176/21 52/177/21 92/169/21 93/168/21
f 52/178/20 51/179/20 91/171/20 92/170/20
f 148/180/22 156/181/22 90/182/22 15/183/22
f 156/181/23 157/184/23 89/185/23 90/182/23
f 85/186/24 84/187/24 118/188/24 88/189/24 89/190/24 157/191/24
f 123/192/23 119/52/23 87/5/23 117/193/23
f 132/194/22 140/195/22 86/196/22 16/197/22
f 140/195/23 141/198/23 85/199/23 86/196/23
f 81/200/24 80/201/24 120/202/24 84/187/24 85/186/24 141/203/24
f 122/204/25 121/205/25 124/206/25 128/207/25
f 4/208/26 62/209/26 82/210/26 17/211/26
f 62/209/23 61/212/23 81/213/23 82/210/23
f 61/214/24 60/215/24 80/201/24 81/200/24
f 60/216/23 59/20/23 79/46/23 115/217/23 80/218/23
f 130/219/27 142/220/27 78/221/27 9/222/27
f 142/223/8 143/224/8 77/225/8 78/226/8
f 143/227/28 144/228/28 76/229/28 77/230/28
f 144/231/8 145/33/8 75/21/8 76/232/8
f 146/233/27 158/234/27 74/235/27 10/236/27
f 158/237/8 159/238/8 73/239/8 74/240/8
f 159/241/28 160/242/28 72/243/28 73/244/28
f 160/245/8 161/29/8 71/32/8 72/246/8
f 6/247/29 66/248/29 70/249/29 11/250/29
f 66/251/8 65/252/8 69/253/8 70/254/8
f 65/255/28 64/256/28 68/257/28 69/258/28
f 64/259/8 63/25/8 67/28/8 68/260/8
f 9/222/30 78/221/30 54/173/30 2/172/30
f 78/226/8 77/225/8 53/261/8 54/262/8
f 77/230/28 76/229/28 52/177/28 53/176/28
f 76/232/8 75/21/8 51/24/8 52/263/8
f 30/151/19 102/150/19 62/209/19 4/208/19
f 102/155/20 101/154/20 61/264/20 62/265/20
f 101/159/21 100/158/21 60/215/21 61/214/21
f 100/163/31 99/162/31 59/266/31 60/267/31
f 21/119/15 114/118/15 66/248/15 6/247/15
f 114/123/16 113/122/16 65/268/16 66/269/16
f 113/127/17 112/126/17 64/256/17 65/255/17
f 112/131/16 111/130/16 63/270/16 64/271/16
f 15/183/32 90/182/32 55/141/32 8/140/32
f 90/182/23 89/185/23 56/272/23 55/141/23
f 89/190/24 88/189/24 57/145/24 56/144/24
f 88/273/23 117/193/23 87/5/23 58/8/23 57/274/23
f 120/275/23 122/276/23 116/277/23 84/278/23
f 80/218/23 115/217/23 122/276/23 120/275/23
f 115/217/23 79/46/23 121/50/23 122/276/23
f 118/279/23 123/192/23 117/193/23 88/273/23
f 84/278/23 116/277/23 123/192/23 118/279/23
f 123/280/33 116/281/33 126/282/33 129/283/33
f 128/284/23 124/285/23 125/286/23 126/287/23
f 126/287/23 125/286/23 127/288/23 129/289/23
f 83/49/34 119/52/34 127/288/34 125/286/34
f 121/50/34 83/49/34 125/286/34 124/285/34
f 116/281/33 122/290/33 128/291/33 126/282/33
f 119/292/35 123/293/35 129/294/35 127/295/35
f 72/246/8 71/32/8 145/33/8 144/231/8
f 73/244/28 72/243/28 144/228/28 143/227/28
f 74/240/8 73/239/8 143/224/8 142/223/8
f 10/236/27 74/235/27 142/220/27 130/219/27
f 82/210/23 81/213/23 141/198/23 140/195/23
f 17/211/22 82/210/22 140/195/22 132/194/22
f 37/89/4 138/84/4 139/43/4 38/40/4
f 36/87/4 137/82/4 138/84/4 37/89/4
f 10/86/4 130/79/4 137/82/4 36/87/4
f 43/296/12 135/72/12 136/57/12 44/297/12
f 42/298/12 134/70/12 135/72/12 43/296/12
f 20/299/12 133/67/12 134/70/12 42/298/12
f 44/297/12 136/57/12 131/47/12 12/45/12
f 38/40/4 139/43/4 132/44/4 16/41/4
f 71/32/8 19/31/8 133/34/8 145/33/8
f 68/260/8 67/28/8 161/29/8 160/245/8
f 69/258/28 68/257/28 160/242/28 159/241/28
f 70/254/8 69/253/8 159/238/8 158/237/8
f 11/250/27 70/249/27 158/234/27 146/233/27
f 86/196/23 85/199/23 157/184/23 156/181/23
f 16/197/22 86/196/22 156/181/22 148/180/22
f 34/95/4 154/90/4 155/39/4 35/36/4
f 33/93/4 153/88/4 154/90/4 34/95/4
f 11/92/4 146/85/4 153/88/4 33/93/4
f 46/71/12 151/66/12 152/59/12 47/58/12
f 45/69/12 150/64/12 151/66/12 46/71/12
f 19/68/12 149/61/12 150/64/12 45/69/12
f 47/58/12 152/59/12 147/51/12 13/48/12
f 35/36/4 155/39/4 148/42/4 15/37/4
f 67/28/8 18/27/8 149/30/8 161/29/8
