# Blender v2.93.4 OBJ File: ''
# www.blender.org
mtllib RockMan.mtl
o Cube
v -0.215277 3.930955 -3.229818
v 0.245062 1.985134 -3.273023
v -0.132745 3.906113 -1.231676
v 0.327594 1.960291 -1.274881
v -2.159827 3.469261 -3.155240
v -1.699488 1.523439 -3.198445
v -2.077296 3.444418 -1.157098
v -1.616956 1.498597 -1.200303
v -1.335694 5.557187 -1.968090
v -1.866917 5.431059 -1.947716
v -1.358241 5.563973 -2.513952
v -1.889463 5.437845 -2.493579
v -1.484604 2.257177 -2.659778
v -1.348036 3.807943 -3.915356
v -1.226128 0.995516 -4.189941
v -1.089559 2.546282 -5.445520
v 0.493915 2.314960 -2.373208
v 0.630484 3.865725 -3.628786
v 0.752391 1.053299 -3.903372
v 0.888960 2.604064 -5.158950
v -0.631455 4.774313 -5.178106
v -0.498866 4.127126 -5.963026
v 0.516043 4.156766 -5.816026
v 0.383454 4.803953 -5.031107
v -1.213434 2.270886 -1.997233
v -0.526868 3.984722 -2.766253
v -0.446266 1.267685 -3.548052
v 0.240300 2.981521 -4.317073
v 0.501232 2.033500 -0.995451
v 1.187798 3.747337 -1.764471
v 1.268400 1.030299 -2.546270
v 1.954966 2.744135 -3.315290
v 1.444015 4.670844 -3.954645
v 1.629111 4.428801 -4.328814
v 2.042810 4.371526 -4.087112
v 1.857715 4.613569 -3.712944
vt 0.625000 0.750000
vt 0.625000 0.500000
vt 0.625000 0.500000
vt 0.625000 0.750000
vt 0.375000 0.750000
vt 0.625000 1.000000
vt 0.375000 1.000000
vt 0.375000 0.000000
vt 0.625000 0.000000
vt 0.625000 0.250000
vt 0.375000 0.250000
vt 0.125000 0.500000
vt 0.375000 0.500000
vt 0.125000 0.750000
vt 0.875000 0.500000
vt 0.875000 0.750000
vt 0.625000 0.250000
vt 0.625000 1.000000
vt 0.625000 0.000000
vt 0.375000 0.000000
vt 0.625000 0.000000
vt 0.625000 0.250000
vt 0.375000 0.250000
vt 0.625000 0.500000
vt 0.375000 0.500000
vt 0.625000 0.750000
vt 0.375000 0.750000
vt 0.625000 1.000000
vt 0.375000 1.000000
vt 0.125000 0.500000
vt 0.125000 0.750000
vt 0.625000 0.500000
vt 0.625000 0.750000
vt 0.875000 0.500000
vt 0.875000 0.750000
vt 0.625000 0.000000
vt 0.625000 0.250000
vt 0.625000 1.000000
vt 0.375000 0.000000
vt 0.625000 0.000000
vt 0.625000 0.250000
vt 0.375000 0.250000
vt 0.625000 0.500000
vt 0.375000 0.500000
vt 0.625000 0.750000
vt 0.375000 0.750000
vt 0.625000 1.000000
vt 0.375000 1.000000
vt 0.125000 0.500000
vt 0.125000 0.750000
vt 0.625000 0.750000
vt 0.625000 1.000000
vt 0.625000 0.500000
vt 0.875000 0.500000
vt 0.875000 0.750000
vt 0.625000 0.250000
vt 0.625000 0.000000
vn 0.8135 0.5809 -0.0264
vn 0.0413 -0.0124 0.9991
vn -0.9723 -0.2308 0.0373
vn 0.2302 -0.9729 -0.0216
vn 0.9723 0.2308 -0.0373
vn -0.0413 0.0124 -0.9991
vn -0.2302 0.9729 0.0216
vn -0.1144 0.3306 -0.9368
vn -0.0533 0.3741 0.9259
vn -0.9916 0.1219 0.0425
vn -0.9893 -0.0289 -0.1433
vn 0.1292 -0.6308 -0.7651
vn 0.9893 0.0289 0.1433
vn -0.1292 0.6308 0.7651
vn -0.0683 -0.7754 0.6278
vn 0.9741 0.2251 -0.0210
vn 0.0683 0.7754 -0.6278
vn -0.9114 0.2285 -0.3423
vn -0.1058 0.8178 0.5658
vn 0.1441 -0.3561 -0.9233
vn -0.8573 0.1187 -0.5009
vn 0.3836 -0.5016 -0.7754
vn 0.8573 -0.1187 0.5009
vn -0.3836 0.5016 0.7754
vn -0.3433 -0.8569 0.3845
vn -0.0931 0.9213 0.3776
vn 0.3433 0.8569 -0.3845
vn 0.4179 -0.4076 -0.8119
vn 0.9193 0.1271 0.3726
vn -0.5648 0.5369 -0.6267
usemtl Material
s off
f 3/1/1 1/2/1 11/3/1 9/4/1
f 4/5/2 3/1/2 7/6/2 8/7/2
f 8/8/3 7/9/3 5/10/3 6/11/3
f 6/12/4 2/13/4 4/5/4 8/14/4
f 2/13/5 1/2/5 3/1/5 4/5/5
f 6/11/6 5/10/6 1/2/6 2/13/6
f 11/3/7 12/15/7 10/16/7 9/4/7
f 1/2/8 5/10/8 12/17/8 11/3/8
f 7/6/9 3/1/9 9/4/9 10/18/9
f 5/10/10 7/9/10 10/19/10 12/17/10
f 13/20/11 14/21/11 16/22/11 15/23/11
f 15/23/12 16/22/12 20/24/12 19/25/12
f 19/25/13 20/24/13 18/26/13 17/27/13
f 17/27/14 18/26/14 14/28/14 13/29/14
f 15/30/15 19/25/15 17/27/15 13/31/15
f 18/26/16 20/24/16 23/32/16 24/33/16
f 23/32/17 22/34/17 21/35/17 24/33/17
f 16/22/18 14/21/18 21/36/18 22/37/18
f 14/28/19 18/26/19 24/33/19 21/38/19
f 20/24/20 16/22/20 22/37/20 23/32/20
f 25/39/21 26/40/21 28/41/21 27/42/21
f 27/42/22 28/41/22 32/43/22 31/44/22
f 31/44/23 32/43/23 30/45/23 29/46/23
f 29/46/24 30/45/24 26/47/24 25/48/24
f 27/49/25 31/44/25 29/46/25 25/50/25
f 26/47/26 30/45/26 36/51/26 33/52/26
f 35/53/27 34/54/27 33/55/27 36/51/27
f 32/43/28 28/41/28 34/56/28 35/53/28
f 30/45/29 32/43/29 35/53/29 36/51/29
f 28/41/30 26/40/30 33/57/30 34/56/30
o Cube.001
v -0.362508 3.332682 3.925786
v -0.445977 2.636151 2.038721
v 0.735175 1.678103 4.433306
v 0.651706 0.981572 2.546241
v -2.748160 2.415781 4.579905
v -2.831629 1.719251 2.692839
v -1.650477 0.761202 5.087424
v -1.733947 0.064672 3.200358
v -0.536924 2.646244 6.239574
v -1.188648 2.395761 6.418269
v -0.836794 3.098250 6.100927
v -1.488519 2.847767 6.279623
v -2.080886 1.673902 3.350047
v -2.075062 3.474449 4.220755
v -2.940141 2.464952 1.717704
v -2.934316 4.265499 2.588412
v 0.402027 2.116353 2.442420
v 0.407852 3.916900 3.313128
v -0.457227 2.907403 0.810077
v -0.451403 4.707951 1.680785
v -1.573285 5.207370 4.294588
v -2.014051 5.613150 3.457255
v -0.740406 5.840111 2.991675
v -0.299639 5.434331 3.829008
v -1.424199 1.216067 3.408828
v -0.477334 2.866286 4.267031
v -1.617384 2.310571 1.720600
v -0.670519 3.960790 2.578803
v 1.019025 0.838799 2.596526
v 1.965889 2.489018 3.454729
v 0.825839 1.933303 0.908297
v 1.772704 3.583522 1.766500
v 1.446382 4.825267 3.468797
v 1.399771 5.089339 3.061476
v 1.989251 4.998315 2.865491
v 2.035861 4.734242 3.272812
vt 0.625000 0.750000
vt 0.625000 0.500000
vt 0.625000 0.500000
vt 0.625000 0.750000
vt 0.375000 0.750000
vt 0.625000 1.000000
vt 0.375000 1.000000
vt 0.375000 0.000000
vt 0.625000 0.000000
vt 0.625000 0.250000
vt 0.375000 0.250000
vt 0.125000 0.500000
vt 0.375000 0.500000
vt 0.125000 0.750000
vt 0.875000 0.500000
vt 0.875000 0.750000
vt 0.625000 0.250000
vt 0.625000 1.000000
vt 0.625000 0.000000
vt 0.375000 0.000000
vt 0.625000 0.000000
vt 0.625000 0.250000
vt 0.375000 0.250000
vt 0.625000 0.500000
vt 0.375000 0.500000
vt 0.625000 0.750000
vt 0.375000 0.750000
vt 0.625000 1.000000
vt 0.375000 1.000000
vt 0.125000 0.500000
vt 0.125000 0.750000
vt 0.625000 0.500000
vt 0.625000 0.750000
vt 0.875000 0.500000
vt 0.875000 0.750000
vt 0.625000 0.000000
vt 0.625000 0.250000
vt 0.625000 1.000000
vt 0.375000 0.000000
vt 0.625000 0.000000
vt 0.625000 0.250000
vt 0.375000 0.250000
vt 0.625000 0.500000
vt 0.375000 0.500000
vt 0.625000 0.750000
vt 0.375000 0.750000
vt 0.625000 1.000000
vt 0.375000 1.000000
vt 0.125000 0.500000
vt 0.125000 0.750000
vt 0.625000 0.750000
vt 0.625000 1.000000
vt 0.625000 0.500000
vt 0.875000 0.500000
vt 0.875000 0.750000
vt 0.625000 0.250000
vt 0.625000 0.000000
vn 0.7761 0.5862 0.2324
vn 0.4127 -0.8603 0.2993
vn -0.8427 -0.4919 0.2188
vn -0.1153 -0.3604 -0.9256
vn 0.8427 0.4919 -0.2188
vn -0.4127 0.8603 -0.2993
vn 0.1153 0.3604 0.9256
vn -0.3529 0.9353 0.0238
vn 0.4221 -0.6411 0.6409
vn -0.7301 -0.2954 0.6162
vn -0.9037 -0.1840 0.3865
vn -0.3767 0.4043 -0.8335
vn 0.9037 0.1840 -0.3865
vn 0.3767 -0.4043 0.8335
vn 0.0008 -0.8997 -0.4364
vn 0.8533 0.4727 -0.2201
vn -0.0008 0.8997 0.4364
vn -0.8178 0.2140 0.5342
vn 0.3623 -0.1441 0.9208
vn -0.3579 0.6662 -0.6543
vn -0.8838 0.3399 0.3215
vn -0.1904 0.5367 -0.8220
vn 0.8838 -0.3399 -0.3215
vn 0.1904 -0.5367 0.8220
vn -0.2914 -0.8176 -0.4967
vn 0.3240 0.0664 0.9437
vn 0.2914 0.8176 0.4967
vn -0.1594 0.6207 -0.7677
vn 0.9892 -0.0422 -0.1406
vn -0.5002 0.6993 0.5106
usemtl Material.001
s off
f 39/58/31 37/59/31 47/60/31 45/61/31
f 40/62/32 39/58/32 43/63/32 44/64/32
f 44/65/33 43/66/33 41/67/33 42/68/33
f 42/69/34 38/70/34 40/62/34 44/71/34
f 38/70/35 37/59/35 39/58/35 40/62/35
f 42/68/36 41/67/36 37/59/36 38/70/36
f 47/60/37 48/72/37 46/73/37 45/61/37
f 37/59/38 41/67/38 48/74/38 47/60/38
f 43/63/39 39/58/39 45/61/39 46/75/39
f 41/67/40 43/66/40 46/76/40 48/74/40
f 49/77/41 50/78/41 52/79/41 51/80/41
f 51/80/42 52/79/42 56/81/42 55/82/42
f 55/82/43 56/81/43 54/83/43 53/84/43
f 53/84/44 54/83/44 50/85/44 49/86/44
f 51/87/45 55/82/45 53/84/45 49/88/45
f 54/83/46 56/81/46 59/89/46 60/90/46
f 59/89/47 58/91/47 57/92/47 60/90/47
f 52/79/48 50/78/48 57/93/48 58/94/48
f 50/85/49 54/83/49 60/90/49 57/95/49
f 56/81/50 52/79/50 58/94/50 59/89/50
f 61/96/51 62/97/51 64/98/51 63/99/51
f 63/99/52 64/98/52 68/100/52 67/101/52
f 67/101/53 68/100/53 66/102/53 65/103/53
f 65/103/54 66/102/54 62/104/54 61/105/54
f 63/106/55 67/101/55 65/103/55 61/107/55
f 62/104/56 66/102/56 72/108/56 69/109/56
f 71/110/57 70/111/57 69/112/57 72/108/57
f 68/100/58 64/98/58 70/113/58 71/110/58
f 66/102/59 68/100/59 71/110/59 72/108/59
f 64/98/60 62/97/60 69/114/60 70/113/60
o Cube.002
v -1.000000 0.760640 1.000000
v -1.000000 1.360342 1.000000
v -1.000000 0.760640 -1.000000
v -1.000000 1.360342 -1.000000
v 1.000000 0.760640 1.000000
v 1.000000 1.360342 1.000000
v 1.000000 0.760640 -1.000000
v 1.000000 1.360342 -1.000000
v -0.510764 1.360342 0.510764
v -0.510764 1.360342 -0.510764
v 0.510764 1.360342 -0.510764
v 0.510764 1.360342 0.510764
v -0.513546 1.784593 0.513546
v -0.513546 1.784593 -0.513546
v 0.513546 1.784593 -0.513546
v 0.513546 1.784593 0.513546
v -0.728334 2.258118 0.728334
v -0.728334 2.258118 -0.728334
v 0.728334 2.258118 -0.728334
v 0.728334 2.258118 0.728334
v -1.173817 2.619540 1.173817
v -1.173817 2.619540 -1.173817
v 1.173817 2.619540 -1.173817
v 1.173817 2.619540 1.173817
v -1.173817 2.619540 1.173817
v -1.173817 2.619540 -1.173817
v 1.173817 2.619540 -1.173817
v 1.173817 2.619540 1.173817
v -1.173817 2.619540 0.000000
v 0.000000 2.619540 -1.173817
v 1.173817 2.619540 0.000000
v 0.000000 2.619540 1.173817
v 0.000000 2.619540 0.000000
v 1.173817 3.145130 0.000000
v 1.173817 3.145130 1.173817
v 0.000000 3.145130 1.173817
v 0.000000 3.145130 0.000000
v 1.173817 3.145130 0.586908
v 0.586908 3.145130 1.173817
v 0.000000 3.145130 0.586908
v 0.586908 3.145130 0.000000
v 0.586908 3.145130 0.586908
v 0.000000 3.162859 -1.173817
v 1.173817 3.162859 -1.173817
v 1.173817 3.162859 0.000000
v 0.000000 3.162859 0.000000
v 0.586908 3.162859 -1.173817
v 1.173817 3.162859 -0.586908
v 0.000000 3.162859 -0.586908
v 0.586908 3.162859 0.000000
v 0.586908 3.162859 -0.586908
v -1.173817 4.050925 0.000000
v -1.173817 4.050925 -0.441755
v 0.000000 4.050925 0.567484
v -1.173817 4.050925 0.567484
v 0.000000 4.050925 -0.441755
v 0.000000 4.050925 0.000000
v 0.889383 3.631453 0.871342
v 0.889383 3.631453 0.889383
v 0.871342 3.631453 0.889383
v 0.871342 3.631453 0.871342
v 0.828312 3.440096 -0.932414
v 0.932414 3.440096 -0.932414
v 0.932414 3.440096 -0.828311
v 0.828312 3.440096 -0.828311
v -0.616820 0.427209 -0.616820
v -0.616820 0.427209 0.616820
v 0.616820 0.427209 -0.616820
v 0.616820 0.427209 0.616820
vt 0.375000 0.000000
vt 0.625000 0.000000
vt 0.625000 0.250000
vt 0.375000 0.250000
vt 0.625000 0.500000
vt 0.375000 0.500000
vt 0.625000 0.750000
vt 0.375000 0.750000
vt 0.625000 1.000000
vt 0.375000 1.000000
vt 0.375000 1.000000
vt 0.375000 0.750000
vt 0.625000 0.500000
vt 0.625000 0.750000
vt 0.625000 1.000000
vt 0.625000 0.750000
vt 0.625000 1.000000
vt 0.625000 0.000000
vt 0.625000 0.250000
vt 0.625000 0.500000
vt 0.625000 0.500000
vt 0.625000 0.750000
vt 0.625000 0.250000
vt 0.625000 0.000000
vt 0.625000 0.500000
vt 0.625000 0.750000
vt 0.625000 0.000000
vt 0.625000 0.250000
vt 0.625000 1.000000
vt 0.750000 0.625000
vt 0.750000 0.750000
vt 0.750000 0.750000
vt 0.750000 0.687500
vt 0.750000 0.625000
vt 0.625000 0.000000
vt 0.625000 0.250000
vt 0.625000 1.000000
vt 0.000000 0.000000
vt 0.000000 0.000000
vt 0.000000 0.000000
vt 0.000000 0.000000
vt 0.000000 0.000000
vt 0.000000 0.000000
vt 0.000000 0.000000
vt 0.000000 0.000000
vt 0.000000 0.000000
vt 0.750000 0.625000
vt 0.750000 0.750000
vt 0.687500 0.687500
vt 0.687500 0.750000
vt 0.000000 0.000000
vt 0.000000 0.000000
vt 0.000000 0.000000
vt 0.000000 0.000000
vt 0.000000 0.000000
vt 0.000000 0.000000
vt 0.000000 0.000000
vt 0.625000 0.625000
vt 0.687500 0.625000
vt 0.625000 0.625000
vt 0.625000 0.687500
vt 0.687500 0.687500
vt 0.625000 0.687500
vt 0.687500 0.562500
vt 0.750000 0.562500
vt 0.750000 0.625000
vt 0.687500 0.625000
vt 0.750000 0.500000
vt 0.750000 0.500000
vt 0.000000 0.000000
vt 0.000000 0.000000
vt 0.000000 0.000000
vt 0.625000 0.625000
vt 0.625000 0.562500
vt 0.687500 0.500000
vt 0.687500 0.562500
vt 0.687500 0.500000
vt 0.875000 0.625000
vt 0.875000 0.750000
vt 0.750000 0.500000
vt 0.875000 0.500000
vt 0.000000 0.000000
vt 0.000000 0.000000
vt 0.000000 0.000000
vt 0.000000 0.000000
vt 0.687500 0.750000
vt 0.625000 0.750000
vt 0.000000 0.000000
vt 0.000000 0.000000
vt 0.000000 0.000000
vt 0.625000 0.500000
vt 0.625000 0.562500
vt 0.000000 0.000000
vt 0.000000 0.000000
vt 0.000000 0.000000
vt 0.125000 0.500000
vt 0.375000 0.500000
vt 0.125000 0.750000
vt 0.375000 0.250000
vt 0.375000 0.000000
vn -1.0000 0.0000 0.0000
vn 0.0000 0.0000 -1.0000
vn 1.0000 0.0000 0.0000
vn 0.0000 0.0000 1.0000
vn 0.0000 -0.7544 0.6564
vn 0.0000 1.0000 0.0000
vn 0.0000 -0.0066 1.0000
vn 0.9107 -0.4131 0.0000
vn 0.0000 -0.0066 -1.0000
vn 1.0000 -0.0066 0.0000
vn -1.0000 -0.0066 0.0000
vn 0.6300 -0.7766 0.0000
vn -0.9107 -0.4131 0.0000
vn 0.0000 -0.4131 0.9107
vn 0.0000 -0.4131 -0.9107
vn -0.6300 -0.7766 0.0000
vn 0.0000 -0.7766 0.6300
vn 0.0000 -0.7766 -0.6300
vn 0.0000 0.5049 -0.8632
vn -0.7542 0.6567 0.0000
vn 0.0000 0.4553 -0.8903
vn 0.0000 0.3900 0.9208
vn -0.8632 0.5049 0.0000
vn 0.8632 0.5049 0.0000
vn 0.0000 0.5049 0.8632
vn 0.0000 0.6567 -0.7542
vn 0.7542 0.6567 0.0000
vn 0.0000 0.6567 0.7542
vn 0.0000 -1.0000 0.0000
vn 0.0000 -0.7544 -0.6564
vn -0.6564 -0.7544 0.0000
vn 0.6564 -0.7544 0.0000
usemtl None
s off
f 73/115/61 74/116/61 76/117/61 75/118/61
f 75/118/62 76/117/62 80/119/62 79/120/62
f 79/120/63 80/119/63 78/121/63 77/122/63
f 77/122/64 78/121/64 74/123/64 73/124/64
f 77/122/65 73/124/65 139/125/65 141/126/65
f 78/121/66 80/119/66 83/127/66 84/128/66
f 81/129/67 84/128/67 88/130/67 85/131/67
f 76/117/66 74/116/66 81/132/66 82/133/66
f 74/123/66 78/121/66 84/128/66 81/129/66
f 80/119/66 76/117/66 82/133/66 83/127/66
f 88/130/68 87/134/68 91/135/68 92/136/68
f 83/127/69 82/133/69 86/137/69 87/134/69
f 84/128/70 83/127/70 87/134/70 88/130/70
f 82/133/71 81/132/71 85/138/71 86/137/71
f 92/136/72 91/135/72 95/139/72 96/140/72
f 86/137/73 85/138/73 89/141/73 90/142/73
f 85/131/74 88/130/74 92/136/74 89/143/74
f 87/134/75 86/137/75 90/142/75 91/135/75
f 105/144/61 104/145/61 108/146/61 112/147/61 109/148/61
f 90/142/76 89/141/76 93/149/76 94/150/76
f 89/143/77 92/136/77 96/140/77 93/151/77
f 91/135/78 90/142/78 94/150/78 95/139/78
f 101/152/61 97/153/61 127/154/61 124/155/61
f 103/156/63 99/157/63 116/158/63 120/159/63 117/160/63
f 104/145/63 105/144/63 129/161/63 126/162/63
f 114/163/66 112/147/66 108/146/66 111/164/66
f 100/165/63 103/156/63 106/166/63 110/167/63 107/168/63
f 104/169/64 100/165/64 107/168/64 111/170/64 108/171/64
f 103/172/62 105/144/62 109/148/62 113/173/62 106/174/62
f 110/175/79 114/163/79 133/176/79 130/177/79
f 106/174/66 113/173/66 114/163/66 110/175/66
f 113/173/66 109/148/66 112/147/66 114/163/66
f 123/178/66 121/179/66 118/180/66 122/181/66
f 102/182/61 105/144/61 118/180/61 121/179/61 115/183/61
f 99/157/62 102/184/62 115/185/62 119/186/62 116/158/62
f 105/144/64 103/172/64 117/187/64 122/181/64 118/180/64
f 120/188/66 123/178/66 122/181/66 117/187/66
f 119/189/80 123/178/80 137/190/80 134/191/80
f 119/189/66 115/183/66 121/179/66 123/178/66
f 129/161/66 124/192/66 127/193/66 126/162/66
f 128/194/66 125/195/66 124/192/66 129/161/66
f 98/196/61 101/152/61 124/155/61 125/197/61
f 105/144/63 102/182/63 128/194/63 129/161/63
f 102/184/81 98/196/81 125/197/81 128/198/81
f 97/153/82 104/169/82 126/199/82 127/154/82
f 130/177/66 133/176/66 132/200/66 131/201/66
f 114/163/83 111/164/83 132/200/83 133/176/83
f 107/168/84 110/167/84 130/202/84 131/203/84
f 111/170/85 107/168/85 131/203/85 132/204/85
f 135/205/66 134/191/66 137/190/66 136/206/66
f 116/158/86 119/186/86 134/207/86 135/208/86
f 120/159/87 116/158/87 135/208/87 136/209/87
f 123/178/88 120/188/88 136/206/88 137/190/88
f 138/210/89 140/211/89 141/126/89 139/212/89
f 75/118/90 79/120/90 140/211/90 138/213/90
f 73/115/91 75/118/91 138/213/91 139/214/91
f 79/120/92 77/122/92 141/126/92 140/211/92
